<?xml version="1.0" encoding="utf-8"?>
<!-- Generator: Adobe Illustrator 21.0.2, SVG Export Plug-In . SVG Version: 6.00 Build 0)  -->
<svg version="1.1" id="Layer_1" xmlns="http://www.w3.org/2000/svg" xmlns:xlink="http://www.w3.org/1999/xlink" x="0px" y="0px"
	 viewBox="0 0 303.3 303.3" style="enable-background:new 0 0 303.3 303.3;" xml:space="preserve">
<style type="text/css">
	.st0{fill:#D72257;}
	.st1{opacity:0.4;fill:#FFFFFF;}
</style>
<g id="Layer_6">
</g>
<path class="st0" d="M258.9,44.4c-59.2-59.2-155.3-59.2-214.5,0c-59.2,59.2-59.2,155.3,0,214.5c59.2,59.2,155.3,59.2,214.5,0
	C318.1,199.7,318.1,103.6,258.9,44.4z M227.6,155l-112.1,64.7c-2.9,1.6-5.2,0.3-5.2-3V87.3c0-3.3,2.3-4.7,5.2-3L227.6,149
	C230.5,150.7,230.5,153.4,227.6,155z"/>
<path class="st1" d="M227.6,155l-112.1,64.7c-2.9,1.6-5.2,0.3-5.2-3V87.3c0-3.3,2.3-4.7,5.2-3L227.6,149
	C230.5,150.7,230.5,153.4,227.6,155z"/>
</svg>
