<?xml version="1.0" encoding="utf-8"?>
<!-- Generator: Adobe Illustrator 19.2.1, SVG Export Plug-In . SVG Version: 6.00 Build 0)  -->
<svg version="1.1" id="Layer_1" xmlns="http://www.w3.org/2000/svg" xmlns:xlink="http://www.w3.org/1999/xlink" x="0px" y="0px"
	 viewBox="0 0 835.2 163" style="enable-background:new 0 0 835.2 163;" xml:space="preserve">
<style type="text/css">
	.st0{fill:#512178;}
</style>
<path class="st0" d="M50.4,132.3c0,0-1.1,0.2-2.8,0.2c-8.7,0-13.1-4.7-13.1-14V88.7H52V72.9H34.5V52H16.3v20.9H6.5v15.9h9.4v31.4
	c0,26.5,21.1,29.4,30.1,29.4c2.8,0,4.8-0.3,5.2-0.3l2-0.3v-17.3L50.4,132.3z"/>
<path class="st0" d="M102.8,70.1c-9.5,0-18.4,4-24.4,10.7V43.2H59.8V149h18.6v-36.3c0-3.7,0.3-6.6,1.1-8.9
	c2.8-9.7,11.1-16.2,20.6-16.2s11.4,6.1,11.4,15.8V149H130v-48.7C130,80.3,120.8,70.1,102.8,70.1z"/>
<path class="st0" d="M174.1,69.7h-0.3c-21.4,0.2-37.5,17.4-37.5,40.1c0,23,16.1,40.4,37.5,40.4c12.8,0,24.2-6.2,31.1-17.1l0.4-0.6
	l-13.5-8.9l-0.4,0.6c-4.5,6-10.8,9.3-17.5,9.3c-9.6,0-17.7-7.4-19.8-18.2h56.5v-0.7c0-0.2,0-0.4,0.1-0.8c0.1-1.3,0.3-3.6,0.2-6.4
	C210.2,86,194.4,69.7,174.1,69.7z M155.3,100.2c3.2-8.5,10.2-13.7,18.6-13.7c8.4,0,15.4,5.2,18.6,13.7H155.3z"/>
<path class="st0" d="M351.7,70.3c-11.7,0-20.5,6.7-25.3,13.4c-3.7-8.9-11.2-13.4-22.5-13.4c-9.1,0-18.5,4.2-23.9,10.5
	c-3-7.6-9.7-9.1-20-9.1c-0.5,0-1,0.1-1.5,0.2l-0.6,0.2v14.2h0.7c2.3,0.1,4.6,0.8,4.6,7.9v52.6v1.3v0.5l-0.1,0.5l18.8,0.1v-38.1
	c0.1-2.6,0.3-4.5,0.7-6.2c2.1-8,8.2-17.3,18.5-17.3c8.6,0,10.2,5.8,10.2,15.8v45.7h18.6v-35.4c0-3.8,0.3-6.8,0.9-9.4
	c2.2-8.3,8.6-16.7,18-16.7c7.7,0,10.5,4.3,10.5,15.8v45.7H378v-48.7C378,80.4,369.2,70.3,351.7,70.3z"/>
<path class="st0" d="M785.1,10c-24.8,0-45,20.2-45,45s20.2,45,45,45s45-20.2,45-45S809.9,10,785.1,10z M785.1,95.2
	c-22.2,0-40.2-18-40.2-40.2s18-40.2,40.2-40.2s40.2,18,40.2,40.2C825.3,77.1,807.3,95.2,785.1,95.2z"/>
<path class="st0" d="M770.2,64.5c-0.1,0-0.4,0.1-1,0.1c-3.1,0-4.6-1.7-4.6-4.9V48.8h6.2v-5.6h-6.2v-7.1h-6.4v7.1h-3.5v5.6h3.3v11.4
	c0,9.4,7.4,10.4,10.6,10.4c1.1,0,1.8-0.1,1.8-0.1l0.7-0.1v-6.1L770.2,64.5z"/>
<path class="st0" d="M806.3,42.7c-4.1,0-7.2,2.4-8.9,4.7c-1.3-3.1-4-4.7-7.9-4.7c-3.2,0-6.5,1.5-8.4,3.7c-1.1-2.7-3.4-3.2-7.1-3.2
	c-0.2,0-0.4,0-0.5,0.1l-0.2,0.1v5.5h0.3c0.8,0,1.6,0.3,1.6,2.8v18.1v0.5v0.2v0.2h6.6V57c0-0.9,0.1-1.6,0.3-2.2
	c0.7-2.8,2.9-6.1,6.5-6.1c3,0,3.6,2,3.6,5.6v16.1h6.6V58c0-1.3,0.1-2.4,0.3-3.3c0.8-2.9,3-5.9,6.4-5.9c2.7,0,3.7,1.5,3.7,5.6v16.1
	h6.6V53.3C815.5,46.2,812.4,42.7,806.3,42.7z"/>
<rect x="389.5" y="72" class="st0" width="18.6" height="77.1"/>
<rect x="389.4" y="43.4" class="st0" width="18.7" height="18.9"/>
<path class="st0" d="M451.8,102.6c-7-2.8-13-5.1-13-9.1c0-4.8,4.9-6.5,9.5-6.5c10.2,0,16.2,5.7,16.2,5.7l2.2,2.2l7.9-14.7l-1.1-1.2
	c-0.3-0.4-8.3-8.8-25-8.8c-17.1,0-28.5,9.2-28.5,23c0,15.1,13.3,20.4,24,24.8c7.1,2.9,13.2,5.3,13.2,9.4c0,4.4-4.9,6.7-9.7,6.7
	c-11.4,0-19-7.6-19.1-7.7l-2-2.1l-9.4,13.8l1.3,1.4c0.4,0.5,10.7,11.3,29.2,11.3c16.8,0,28.5-9.6,28.5-23.4
	C476,112.2,462.5,106.9,451.8,102.6z"/>
<path class="st0" d="M512.3,102.6c-7-2.8-13-5.1-13-9.1c0-4.8,4.9-6.5,9.5-6.5c10.2,0,16.2,5.7,16.2,5.7l2.2,2.2l7.9-14.7L534,79
	c-0.3-0.4-8.3-8.8-25-8.8c-17.1,0-28.5,9.2-28.5,23c0,15.1,13.3,20.4,24,24.8c7.1,2.9,13.2,5.3,13.2,9.4c0,4.4-4.9,6.7-9.7,6.7
	c-11.3,0-19-7.6-19.1-7.7l-2-2.1l-9.4,13.8l1.3,1.4c0.4,0.5,10.7,11.3,29.2,11.3c16.8,0,28.5-9.6,28.5-23.4
	C536.5,112.2,523.1,106.9,512.3,102.6z"/>
<rect x="545.1" y="43.4" class="st0" width="18.7" height="18.9"/>
<rect x="545.3" y="72" class="st0" width="18.6" height="77.1"/>
<path class="st0" d="M612.2,70.3c-23.6,0-41.4,17.3-41.4,40.1c0,23,17.8,40.4,41.4,40.4c23.6,0,41.4-17.4,41.4-40.4
	C653.6,87.5,635.8,70.3,612.2,70.3z M612.2,134.1c-12.6,0-22.5-10.4-22.5-23.7S599.4,87,612.2,87c12.9,0,22.5,10.1,22.5,23.4
	C634.7,123.9,625,134.1,612.2,134.1z"/>
<path class="st0" d="M705.8,70c-12,0-21,3.6-26.2,10.5l0,0c-3.1-7.5-9.7-9-20-9c-0.5,0-1,0.1-1.5,0.2l-0.6,0.2v14.2h0.7
	c2.3,0.1,4.6,0.8,4.6,7.9v52.6v1.3v0.8h18.6v-38.3c0.1-2.8,0.4-5.1,1-7.1c2.8-9.7,10.9-16,20.6-16c9.5,0,11.4,6,11.4,15.8v45.6H733
	V100C733,80.2,723.8,70,705.8,70z"/>
</svg>
