<svg xmlns="http://www.w3.org/2000/svg" xmlns:xlink="http://www.w3.org/1999/xlink" viewBox="-251.9 320 681 275.8" width="148" height="60" enable-background="new -251.9 320 681 275.8"><style type="text/css">.st0{clip-path:url(#SVGID_2_);fill:#2a2b39;} .st1{fill:#2a2b39;} .st2{clip-path:url(#SVGID_4_);fill:#2a2b39;}</style><defs><path id="SVGID_1_" d="M-251.9 320h681v275.8h-681z"/></defs><clipPath id="SVGID_2_"><use xlink:href="#SVGID_1_" overflow="visible"/></clipPath><path class="st0" d="M-134.2 466.8c19.7 0 31.6-8.8 31.6-23.9v-.7c0-15.8-12.3-23.5-31.3-23.5h-35.8v48.1h35.5zm-117.7-117h120.2c43.6 0 71.3 10.9 88.5 28.1 14.8 14.8 22.5 33 22.5 58.3v.7c0 35.8-18.6 60.8-48.5 75.2l57.3 83.6h-93.8l-46.4-70.3h-17.6v70.3h-82.2v-245.9z"/><path class="st1" d="M140.6 525.5h-80.5v-175.7h-82.2v246h162.7zm130.5-80.8l22.5 59.7h-45l22.5-59.7zm41.5-96.6h-81.5l-99.8 247.7h84l12.6-33h86.1l13 33h89.2l-103.6-247.7z"/><g class="tm"><defs><path id="SVGID_3_" d="M-251.9 320h681v275.8h-681z"/></defs><clipPath id="SVGID_4_"><use xlink:href="#SVGID_3_" overflow="visible"/></clipPath><path class="st2" d="M389.2 320c-22 0-39.9 17.9-39.9 39.9s17.9 39.9 39.9 39.9 39.9-17.9 39.9-39.9-17.9-39.9-39.9-39.9m0 75.5c-19.7 0-35.6-16-35.6-35.6 0-19.7 16-35.6 35.6-35.6 19.7 0 35.6 16 35.6 35.6.1 19.6-15.9 35.6-35.6 35.6m-13.2-27.1c-.1 0-.4.1-.9.1-2.7 0-4.1-1.5-4.1-4.4v-9.6h5.5v-5h-5.5v-6.3h-5.7v6.3h-3.1v5h3v10.1c0 8.3 6.6 9.2 9.4 9.2.9 0 1.6-.1 1.6-.1l.6-.1v-5.4l-.8.2zm32-19.4c-3.6 0-6.4 2.1-7.9 4.2-1.1-2.8-3.5-4.2-7.1-4.2-2.8 0-5.8 1.3-7.5 3.3-.9-2.4-3-2.9-6.3-2.9-.2 0-.3 0-.5.1l-.2.1v4.9h.2c.7 0 1.4.3 1.4 2.5v16.7l5.9.1v-11.9c0-.8.1-1.4.2-1.9.7-2.5 2.6-5.4 5.8-5.4 2.7 0 3.2 1.8 3.2 5v14.3h5.8v-11.1c0-1.2.1-2.1.3-2.9.7-2.6 2.7-5.2 5.7-5.2 2.4 0 3.3 1.3 3.3 5v14.3h5.8v-15.3c.1-6.6-2.7-9.7-8.1-9.7"/></g></svg>