<?xml version="1.0" encoding="utf-8"?>
<!-- Generator: Adobe Illustrator 21.0.2, SVG Export Plug-In . SVG Version: 6.00 Build 0)  -->
<svg version="1.1" id="Layer_1" xmlns="http://www.w3.org/2000/svg" xmlns:xlink="http://www.w3.org/1999/xlink" x="0px" y="0px"
	 viewBox="0 0 145.2 60" style="enable-background:new 0 0 145.2 60;" xml:space="preserve">
<style type="text/css">
	.st0{fill:#F9F9F9;}
</style>
<path class="st0" d="M105,6.1L85.3,55V44.7H67.8V6.5H49.9v15c-0.6-3.6-2.2-6.5-4.6-8.9c-3.7-3.7-9.8-6.1-19.2-6.1H0v53.4h17.9V44.7
	h3.8L31.8,60H50l0,0h33.3h2h16.2l2.7-7.2H123l2.8,7.2h19.4L122.7,6.1H105z M32.4,26.7c0,3.3-2.6,5.2-6.9,5.2h-7.7V21.5h7.8
	c4.1,0,6.8,1.7,6.8,5.1V26.7z M39.7,41.8c5.5-2.6,9.2-6.9,10.2-12.9v27.8L39.7,41.8z M108.8,40.1l4.9-13l4.9,13H108.8z"/>
</svg>
