<?xml version="1.0" standalone="no"?>
<!DOCTYPE svg PUBLIC "-//W3C//DTD SVG 20010904//EN"
 "http://www.w3.org/TR/2001/REC-SVG-20010904/DTD/svg10.dtd">
<svg version="1.0" xmlns="http://www.w3.org/2000/svg"
 width="1043.000000pt" height="1043.000000pt" viewBox="0 0 1043.000000 1043.000000"
 preserveAspectRatio="xMidYMid meet">
<metadata>
Created by potrace 1.11, written by Peter Selinger 2001-2013
</metadata>
<g transform="translate(0.000000,1043.000000) scale(0.100000,-0.100000)"
fill="#000000" stroke="none">
<path d="M7541 7150 c-4 -3 -47 -104 -95 -225 -49 -121 -97 -239 -107 -262
-11 -23 -19 -46 -19 -51 0 -5 -6 -22 -14 -38 -8 -16 -103 -249 -211 -519 -108
-269 -239 -596 -291 -725 -52 -129 -99 -244 -104 -255 -10 -21 -439 -1088
-518 -1287 -25 -65 -48 -116 -50 -113 -2 2 -4 161 -4 354 0 193 -3 352 -6 352
-4 1 -281 3 -617 4 -335 1 -615 3 -621 4 -9 1 -12 340 -12 1314 0 721 -1 1337
-1 1367 l-1 55 -637 0 c-562 0 -639 -1 -644 -15 -3 -8 -5 -241 -5 -517 1 -275
-2 -499 -6 -496 -5 2 -8 15 -8 28 0 79 -103 304 -196 428 -195 260 -469 422
-869 513 -45 11 -193 35 -238 39 -26 2 -76 7 -110 11 -61 7 -2122 13 -2142 7
-7 -2 -10 -646 -10 -1916 l0 -1912 643 -1 642 -1 1 371 c0 204 0 449 0 544 l0
172 42 1 c105 2 228 1 231 -2 4 -4 313 -473 585 -886 77 -117 140 -204 150
-204 80 -6 4970 -3 4983 3 10 5 24 30 32 56 17 54 165 444 170 450 8 7 1339 3
1346 -5 4 -4 49 -116 100 -248 51 -132 94 -245 96 -250 5 -12 1394 -14 1394
-3 0 8 -115 286 -149 361 -12 25 -21 48 -21 51 0 5 -64 161 -95 231 -8 17
-133 318 -280 670 -147 352 -289 692 -315 755 -27 63 -83 198 -125 300 -42
102 -83 200 -91 218 -34 79 -44 102 -79 187 -20 50 -42 104 -49 120 -8 17 -98
233 -201 480 -103 248 -192 459 -199 470 -11 20 -18 21 -639 20 -346 0 -632
-2 -636 -5z m-5507 -1124 c92 -26 140 -50 191 -97 77 -71 111 -162 103 -277
-9 -128 -81 -234 -195 -288 -108 -52 -197 -62 -538 -60 l-310 1 0 365 c-1 201
0 368 2 372 2 3 157 5 346 3 282 -2 352 -5 401 -19z m6176 -506 c4 -14 19 -54
33 -90 13 -36 56 -150 96 -255 39 -104 75 -199 80 -210 16 -34 86 -229 86
-240 0 -6 -123 -10 -342 -10 -189 0 -343 3 -343 6 0 3 28 80 61 170 34 90 68
182 76 204 7 22 18 49 22 60 13 29 112 288 115 300 1 6 17 50 36 98 l33 89 19
-49 c11 -26 23 -59 28 -73z m-4623 -62 c-3 -8 -6 -5 -6 6 -1 11 2 17 5 13 3
-3 4 -12 1 -19z m-2 -973 c0 -524 -3 -951 -6 -947 -3 4 -44 63 -91 132 -47 69
-118 172 -158 230 -39 58 -93 137 -118 175 -25 39 -49 72 -52 75 -3 3 -24 32
-46 66 -23 34 -90 132 -150 219 -59 87 -104 160 -98 162 84 29 287 169 385
267 140 140 232 289 291 473 18 57 35 103 38 103 3 0 5 -430 5 -955z"/>
</g>
</svg>
